<svg width="52" height="32" viewBox="0 0 52 32" fill="none" xmlns="http://www.w3.org/2000/svg">
<rect width="52" height="32" rx="2" fill="white"/>
<path d="M4 8.66667C4 6.08934 6.08934 4 8.66667 4H43.3333C45.9107 4 48 6.08934 48 8.66667V23.3333C48 25.9107 45.9107 28 43.3333 28H8.66667C6.08934 28 4 25.9107 4 23.3333V8.66667Z" fill="#B2FCE4"/>
<path d="M45.5433 13.7446L44.3353 13.0494L43.1274 12.3201C42.9419 12.2143 42.7319 12.1591 42.5183 12.16C42.3048 12.1609 42.0952 12.2178 41.9106 12.3252C41.726 12.4325 41.5728 12.5864 41.4664 12.7715C41.3599 12.9566 41.3039 13.1664 41.304 13.3799V13.5281C41.304 13.5707 41.3143 13.6127 41.3342 13.6504C41.3541 13.6882 41.3828 13.7205 41.418 13.7446L41.9878 14.0637C42.0145 14.0796 42.0442 14.0898 42.075 14.0939C42.1058 14.0979 42.1371 14.0955 42.167 14.087C42.1969 14.0785 42.2247 14.0639 42.2488 14.0442C42.2728 14.0245 42.2926 14.0001 42.3069 13.9725C42.317 13.9352 42.317 13.8958 42.3069 13.8585V13.4939C42.3053 13.4624 42.31 13.431 42.3206 13.4014C42.3313 13.3718 42.3477 13.3445 42.3688 13.3212C42.39 13.298 42.4155 13.2791 42.444 13.2657C42.4725 13.2523 42.5033 13.2446 42.5348 13.2432H42.6715L43.8111 13.8927L44.9507 14.5309C45.0061 14.5661 45.0455 14.6216 45.0604 14.6855C45.0753 14.7495 45.0646 14.8167 45.0305 14.8728L44.9507 14.9526L43.8111 15.5907L42.6715 16.2403C42.6446 16.2569 42.6147 16.268 42.5835 16.273C42.5523 16.278 42.5204 16.2767 42.4897 16.2693C42.4589 16.2619 42.43 16.2484 42.4045 16.2298C42.379 16.2111 42.3574 16.1876 42.3411 16.1605C42.3295 16.1157 42.3295 16.0686 42.3411 16.0238V15.8414C42.3412 15.6279 42.2852 15.4181 42.1787 15.233C42.0723 15.0479 41.9191 14.894 41.7345 14.7867C41.5498 14.6794 41.3403 14.6224 41.1268 14.6215C40.9132 14.6206 40.7032 14.6758 40.5177 14.7816L39.287 15.4882L38.079 16.1833C37.8001 16.3455 37.596 16.6108 37.5108 16.922C37.4255 17.2332 37.4659 17.5654 37.6232 17.8471C37.7281 18.0398 37.8863 18.198 38.079 18.3029L39.287 18.9981L40.5177 19.6932C40.7032 19.799 40.9132 19.8542 41.1268 19.8533C41.3403 19.8524 41.5498 19.7955 41.7345 19.6882C41.9191 19.5809 42.0723 19.427 42.1787 19.2419C42.2852 19.0568 42.3412 18.847 42.3411 18.6334V18.4853C42.3411 18.4426 42.3308 18.4006 42.3109 18.3629C42.291 18.3252 42.2623 18.2929 42.2271 18.2688L41.6573 17.9383C41.6306 17.9224 41.6009 17.9121 41.5701 17.9081C41.5393 17.9041 41.508 17.9064 41.4781 17.9149C41.4482 17.9235 41.4204 17.9381 41.3963 17.9577C41.3723 17.9774 41.3525 18.0018 41.3382 18.0294C41.3281 18.0706 41.3281 18.1136 41.3382 18.1548V18.5195C41.3398 18.5509 41.3351 18.5823 41.3244 18.612C41.3138 18.6416 41.2974 18.6688 41.2763 18.6921C41.2551 18.7154 41.2295 18.7343 41.2011 18.7477C41.1726 18.7611 41.1417 18.7687 41.1103 18.7702C41.0653 18.7804 41.0186 18.7804 40.9736 18.7702L39.834 18.1206L38.6944 17.4824C38.6369 17.4551 38.5919 17.4069 38.5686 17.3477C38.5454 17.2884 38.5455 17.2225 38.569 17.1634L38.6488 17.0836L39.7884 16.4454L40.928 15.7958C40.9549 15.7792 40.9848 15.7681 41.016 15.7632C41.0472 15.7582 41.0791 15.7594 41.1098 15.7668C41.1406 15.7743 41.1695 15.7877 41.195 15.8064C41.2205 15.825 41.2421 15.8486 41.2584 15.8756C41.27 15.9205 41.27 15.9675 41.2584 16.0124V16.1947C41.2584 16.4082 41.3143 16.618 41.4208 16.8032C41.5272 16.9883 41.6804 17.1422 41.865 17.2495C42.0497 17.3568 42.2592 17.4137 42.4727 17.4146C42.6863 17.4155 42.8963 17.3603 43.0818 17.2545L44.3125 16.548L45.5205 15.8528C45.6567 15.769 45.775 15.659 45.8683 15.5291C45.9617 15.3992 46.0283 15.2521 46.0644 15.0962C46.1004 14.9404 46.1052 14.7789 46.0783 14.6212C46.0515 14.4635 45.9936 14.3128 45.908 14.1776C45.8248 14.0049 45.6994 13.856 45.5433 13.7446Z" fill="black"/>
<path d="M37.589 13.9497L34.7514 19.8072H33.6118L34.6716 17.6192L33.0078 13.9497H34.2158L35.287 16.3998L36.4266 13.9497H37.589Z" fill="black"/>
<path d="M9.22454 16.0238C9.21339 15.8011 9.1372 15.5867 9.0054 15.4069C8.8736 15.2272 8.69198 15.09 8.48301 15.0124C8.27405 14.9348 8.04692 14.9202 7.82974 14.9704C7.61256 15.0206 7.41488 15.1334 7.26115 15.2948C7.10743 15.4562 7.00441 15.6592 6.96486 15.8785C6.92531 16.0979 6.95097 16.3241 7.03864 16.529C7.12632 16.7339 7.27217 16.9087 7.45815 17.0315C7.64412 17.1544 7.86204 17.2201 8.08495 17.2203C8.38718 17.2203 8.67704 17.1003 8.89076 16.8866C9.10447 16.6728 9.22454 16.383 9.22454 16.0807V16.0238ZM9.22454 18.1092V17.5622C9.06373 17.7565 8.86165 17.9126 8.63299 18.019C8.40433 18.1255 8.15483 18.1796 7.90261 18.1776C7.63471 18.1717 7.37061 18.113 7.12538 18.005C6.88015 17.897 6.65861 17.7417 6.47341 17.548C6.28821 17.3544 6.14298 17.1261 6.04602 16.8763C5.94907 16.6265 5.90228 16.36 5.90833 16.0921V16.0238C5.89765 15.7513 5.94078 15.4795 6.03526 15.2238C6.12974 14.968 6.27371 14.7334 6.45893 14.5334C6.64416 14.3333 6.867 14.1718 7.11472 14.0579C7.36244 13.9441 7.63018 13.8802 7.90261 13.8699C8.15034 13.8683 8.39536 13.9216 8.62 14.026C8.84465 14.1305 9.04333 14.2835 9.20174 14.4739V13.9497H10.216V18.1092H9.22454Z" fill="black"/>
<path d="M15.2302 17.1634C14.8656 17.1634 14.7744 17.0266 14.7744 16.6847V14.8842H15.4239V13.9839H14.7744V12.9355H13.726V13.9497H12.3585V13.5281C12.3585 13.1862 12.4952 13.0494 12.8599 13.0494H13.0878V12.2403H12.5978C11.7317 12.2403 11.3214 12.5252 11.3214 13.3799V13.9383H10.7402V14.8842H11.3214V18.1434H12.3585V14.8842H13.726V16.924C13.726 17.7787 14.045 18.1434 14.8655 18.1434H15.4353V17.1634H15.2302Z" fill="black"/>
<path d="M18.9907 15.6477C18.9568 15.401 18.8313 15.1762 18.6391 15.0178C18.447 14.8595 18.2023 14.7792 17.9537 14.793C17.7044 14.7815 17.4596 14.8624 17.2662 15.02C17.0728 15.1777 16.9443 15.4012 16.9053 15.6477H18.9907ZM16.9167 16.2973C16.9343 16.5663 17.056 16.8179 17.256 16.9987C17.4559 17.1795 17.7185 17.2754 17.9879 17.2659C18.1835 17.2683 18.3764 17.2202 18.548 17.1264C18.7197 17.0326 18.8643 16.8962 18.968 16.7303H20.0392C19.9067 17.1697 19.6299 17.5515 19.2535 17.8142C18.8771 18.0768 18.4232 18.2048 17.9651 18.1776C17.4226 18.2152 16.8874 18.0358 16.4772 17.6789C16.0669 17.3221 15.8151 16.8169 15.7771 16.2745V16.0238C15.7771 15.4525 16.004 14.9047 16.4079 14.5008C16.8119 14.0969 17.3597 13.8699 17.9309 13.8699C18.5022 13.8699 19.05 14.0969 19.4539 14.5008C19.8578 14.9047 20.0847 15.4525 20.0847 16.0238C20.0961 16.1108 20.0961 16.1989 20.0847 16.2859L16.9167 16.2973Z" fill="black"/>
<path d="M26.7856 16.0238C26.7781 15.7241 26.6528 15.4395 26.4369 15.2315C26.221 15.0235 25.9319 14.909 25.6321 14.9128C25.3324 14.9165 25.0462 15.0382 24.8355 15.2515C24.6249 15.4648 24.5068 15.7525 24.5068 16.0523C24.5068 16.352 24.6249 16.6397 24.8355 16.853C25.0462 17.0663 25.3324 17.188 25.6321 17.1918C25.9319 17.1955 26.221 17.081 26.4369 16.8731C26.6528 16.6651 26.7781 16.3804 26.7856 16.0808V16.0238ZM23.4922 19.8072V13.9497H24.5064V14.4853C24.6672 14.291 24.8693 14.135 25.098 14.0285C25.3266 13.9221 25.5761 13.8679 25.8283 13.87C26.0962 13.8744 26.3606 13.9316 26.6064 14.0382C26.8522 14.1449 27.0746 14.2989 27.2608 14.4915C27.4471 14.6841 27.5936 14.9115 27.6919 15.1607C27.7903 15.41 27.8386 15.6761 27.834 15.944V16.0238C27.8447 16.2962 27.8016 16.5681 27.7071 16.8238C27.6126 17.0795 27.4686 17.3141 27.2834 17.5142C27.0982 17.7142 26.8753 17.8758 26.6276 17.9896C26.3799 18.1034 26.1122 18.1673 25.8397 18.1776C25.601 18.1822 25.3641 18.1346 25.1456 18.0381C24.9271 17.9417 24.7323 17.7987 24.5748 17.6192V19.8072H23.4922Z" fill="black"/>
<path d="M31.5263 16.0238C31.515 15.8036 31.4401 15.5915 31.3107 15.4131C31.1812 15.2347 31.0029 15.0976 30.7971 15.0186C30.5914 14.9395 30.3672 14.9217 30.1516 14.9675C29.936 15.0133 29.7382 15.1206 29.5824 15.2764C29.4265 15.4323 29.3192 15.63 29.2735 15.8456C29.2277 16.0612 29.2454 16.2854 29.3245 16.4912C29.4036 16.6969 29.5407 16.8753 29.7191 17.0047C29.8975 17.1341 30.1096 17.209 30.3297 17.2203H30.3867C30.6889 17.2203 30.9788 17.1003 31.1925 16.8866C31.4062 16.6728 31.5263 16.383 31.5263 16.0807V16.0238ZM31.5263 18.1092V17.5622C31.3683 17.7569 31.1684 17.9134 30.9415 18.0199C30.7145 18.1265 30.4665 18.1804 30.2158 18.1776C29.9479 18.1731 29.6835 18.116 29.4377 18.0093C29.1919 17.9027 28.9695 17.7486 28.7833 17.556C28.597 17.3634 28.4506 17.136 28.3522 16.8868C28.2539 16.6376 28.2056 16.3714 28.2101 16.1035V16.0238C28.1994 15.7513 28.2425 15.4795 28.337 15.2238C28.4315 14.968 28.5755 14.7334 28.7607 14.5334C28.9459 14.3333 29.1688 14.1718 29.4165 14.0579C29.6642 13.9441 29.9319 13.8802 30.2044 13.8699C30.4504 13.8684 30.6938 13.9218 30.9165 14.0263C31.1393 14.1308 31.336 14.2837 31.4921 14.4739V13.9497H32.5177V18.1092H31.5263Z" fill="black"/>
<path d="M21.646 14.36C21.7407 14.2073 21.8735 14.0819 22.0314 13.996C22.1892 13.9101 22.3666 13.8666 22.5463 13.87C22.6994 13.866 22.8515 13.8972 22.9907 13.9611V15.0323C22.7686 14.8955 22.5107 14.828 22.25 14.8386C22.0707 14.8771 21.9125 14.9818 21.8069 15.1317C21.7013 15.2817 21.656 15.4659 21.6802 15.6477V18.1092H20.6204V13.9497H21.646V14.36Z" fill="black"/>
</svg>
