<svg width="52" height="32" viewBox="0 0 52 32" fill="none" xmlns="http://www.w3.org/2000/svg">
<rect width="52" height="32" rx="2" fill="white"/>
<rect x="7.25" y="7" width="37.5" height="19" fill="white"/>
<path d="M41.618 25.376L39.954 23.52L38.226 25.376H34.834H27.538V16.736H24.146L28.37 7.072H32.466L33.938 10.4V7.072H39.058L39.954 9.568L40.85 7.072H44.754V5.6C44.754 4.704 44.05 4 43.154 4H8.85C7.954 4 7.25 4.704 7.25 5.6V26.4C7.25 27.296 7.954 28 8.85 28H43.154C44.05 28 44.754 27.296 44.754 26.4V25.376H41.618Z" fill="#0071CE"/>
<path d="M42.066 24.352H44.754L41.234 20.576L44.754 16.864H42.13L39.89 19.296L37.714 16.864H35.026L38.61 20.64L35.026 24.352H37.65L39.89 21.92L42.066 24.352Z" fill="#0071CE"/>
<path d="M30.7379 22.624V21.472H34.9619V19.744H30.7379V18.592H35.0259V16.864H28.6899V24.352H35.0259V22.624H30.7379Z" fill="#0071CE"/>
<path d="M42.77 15.776H44.69V8.224L41.618 8.288L39.954 12.96L38.226 8.288H35.026V15.776H37.074V10.528L38.994 15.776H40.786L42.77 10.528V15.776Z" fill="#0071CE"/>
<path d="M31.7619 8.28796H29.1379L25.8099 15.776H28.0499L28.6899 14.304H32.1459L32.7859 15.776H35.0899L31.7619 8.28796ZM29.3939 12.576L30.4179 10.144L31.4419 12.576H29.3939Z" fill="#0071CE"/>
<path d="M42.8981 20.3841L44.7541 22.4321V18.3361L42.8981 20.3841Z" fill="#0071CE"/>
</svg>
