<svg width="52" height="32" viewBox="0 0 52 32" fill="none" xmlns="http://www.w3.org/2000/svg">
<rect width="52" height="32" rx="2" fill="white"/>
<path d="M43.4688 27.7588H8.51464C7.71559 27.7588 7.06775 27.111 7.06775 26.3119V5.68798C7.06775 4.88891 7.71559 4.24109 8.51464 4.24109H43.4688C44.2678 4.24109 44.9157 4.88891 44.9157 5.68798V26.3119C44.9157 27.111 44.2678 27.7588 43.4688 27.7588Z" fill="white"/>
<path d="M13.2746 21.2891C13.2746 21.7485 13.6029 21.8016 13.8948 21.8016C15.1827 21.8016 15.605 20.8305 15.605 19.942C15.605 18.828 14.89 18.0232 13.7397 18.0232C13.4953 18.0232 13.3826 18.0403 13.2746 18.0469V21.2891ZM12.6909 18.4934C12.6909 17.9573 12.4105 17.9926 12.1428 17.9866V17.8326C12.3748 17.8433 12.6132 17.8433 12.8459 17.8433C13.0961 17.8433 13.4361 17.8326 13.8772 17.8326C15.4204 17.8326 16.2611 18.8629 16.2611 19.9185C16.2611 20.5086 15.9158 21.9926 13.8056 21.9926C13.5024 21.9926 13.2212 21.9812 12.9415 21.9812C12.6731 21.9812 12.4105 21.9873 12.1428 21.9926V21.8372C12.4995 21.8016 12.6731 21.7898 12.6909 21.3846V18.4934Z" fill="#211D1D"/>
<path d="M17.1083 18.3508C16.9525 18.3508 16.8156 18.2075 16.8156 18.0529C16.8156 17.9036 16.9585 17.766 17.1083 17.766C17.2625 17.766 17.4005 17.8915 17.4005 18.0529C17.4005 18.2137 17.269 18.3508 17.1083 18.3508ZM16.47 21.8372H16.5832C16.7501 21.8372 16.8691 21.8372 16.8691 21.6399V20.0254C16.8691 19.7632 16.7803 19.7272 16.559 19.6088V19.5134C16.8395 19.4292 17.1731 19.3169 17.1973 19.2981C17.239 19.2749 17.2743 19.2688 17.3046 19.2688C17.3342 19.2688 17.3459 19.3041 17.3459 19.3519V21.6399C17.3459 21.8372 17.4778 21.8372 17.6439 21.8372H17.7454V21.9927C17.5427 21.9927 17.3342 21.9809 17.1197 21.9809C16.905 21.9809 16.6905 21.9869 16.47 21.9927V21.8372Z" fill="#211D1D"/>
<path d="M18.3118 20.0609C18.3118 19.8412 18.2463 19.7812 17.9666 19.6686V19.5545C18.2224 19.4712 18.4666 19.3932 18.7531 19.2688C18.7709 19.2688 18.7884 19.2806 18.7884 19.3276V19.7161C19.1287 19.4712 19.4208 19.2688 19.8204 19.2688C20.3268 19.2688 20.5057 19.6379 20.5057 20.103V21.6401C20.5057 21.8375 20.6372 21.8375 20.8036 21.8375H20.9108V21.9926C20.7017 21.9926 20.4932 21.9811 20.2795 21.9811C20.0646 21.9811 19.8499 21.9873 19.6354 21.9926V21.8375H19.7426C19.9098 21.8375 20.0281 21.8375 20.0281 21.6401V20.0974C20.0281 19.757 19.8204 19.5906 19.48 19.5906C19.2894 19.5906 18.9858 19.7452 18.7884 19.8767V21.6401C18.7884 21.8375 18.9206 21.8375 19.0873 21.8375H19.1945V21.9926C18.9858 21.9926 18.7765 21.9811 18.5617 21.9811C18.3479 21.9811 18.133 21.9873 17.9185 21.9926V21.8375H18.0263C18.1928 21.8375 18.3118 21.8375 18.3118 21.6401V20.0609Z" fill="#211D1D"/>
<path d="M22.4195 20.1565C22.5677 20.1565 22.5851 20.0793 22.5851 20.0079C22.5851 19.7032 22.4006 19.4592 22.0671 19.4592C21.7038 19.4592 21.4534 19.7271 21.3818 20.1565H22.4195ZM21.3643 20.3479C21.3518 20.4014 21.3518 20.4905 21.3643 20.6932C21.3993 21.2599 21.7634 21.7246 22.2399 21.7246C22.5677 21.7246 22.825 21.5453 23.045 21.3251L23.1284 21.4085C22.8539 21.7719 22.5147 22.0817 22.0261 22.0817C21.0777 22.0817 20.8875 21.164 20.8875 20.7827C20.8875 19.6145 21.674 19.2688 22.0906 19.2688C22.5739 19.2688 23.0931 19.5725 23.0983 20.204C23.0983 20.2406 23.0983 20.2759 23.0931 20.3119L23.0386 20.3479H21.3643Z" fill="#211D1D"/>
<path d="M23.2354 21.8373H23.3968C23.5635 21.8373 23.6819 21.8373 23.6819 21.6399V19.9657C23.6819 19.7814 23.4619 19.7454 23.3725 19.6973V19.6088C23.8073 19.4236 24.0465 19.2688 24.1002 19.2688C24.1355 19.2688 24.1534 19.286 24.1534 19.3462V19.8823H24.1662C24.3145 19.6503 24.565 19.2688 24.9284 19.2688C25.0774 19.2688 25.2677 19.3695 25.2677 19.5842C25.2677 19.7454 25.1555 19.889 24.988 19.889C24.8027 19.889 24.8027 19.7454 24.5946 19.7454C24.4933 19.7454 24.1594 19.8823 24.1594 20.2407V21.6399C24.1594 21.8373 24.2785 21.8373 24.4452 21.8373H24.7792V21.9927C24.4513 21.987 24.2015 21.9809 23.9452 21.9809C23.7004 21.9809 23.4503 21.987 23.2354 21.9927V21.8373Z" fill="#211D1D"/>
<path d="M25.5299 21.1642C25.6079 21.5572 25.8462 21.8915 26.2814 21.8915C26.6327 21.8915 26.7632 21.6766 26.7632 21.4681C26.7632 20.765 25.4649 20.9906 25.4649 20.0315C25.4649 19.6973 25.7333 19.2689 26.3891 19.2689C26.5794 19.2689 26.8356 19.3224 27.0679 19.4415L27.11 20.0493H26.9731C26.9137 19.6741 26.7045 19.4589 26.3231 19.4589C26.0844 19.4589 25.8584 19.5964 25.8584 19.8527C25.8584 20.5504 27.2408 20.3356 27.2408 21.2714C27.2408 21.6644 26.925 22.0818 26.2163 22.0818C25.9767 22.0818 25.697 21.9988 25.4885 21.8797L25.423 21.1941L25.5299 21.1642Z" fill="#211D1D"/>
<path d="M32.6229 18.9108H32.474C32.361 18.2137 31.8661 17.9335 31.1993 17.9335C30.5129 17.9335 29.5171 18.3922 29.5171 19.822C29.5171 21.0269 30.3771 21.8915 31.2941 21.8915C31.8841 21.8915 32.3731 21.4863 32.4926 20.8601L32.6291 20.8954L32.4926 21.766C32.242 21.9214 31.5678 22.0818 31.1743 22.0818C29.7798 22.0818 28.8986 21.1819 28.8986 19.8409C28.8986 18.6189 29.9886 17.7426 31.1572 17.7426C31.6401 17.7426 32.1045 17.8976 32.5634 18.0582L32.6229 18.9108Z" fill="#211D1D"/>
<path d="M32.8375 21.8373H32.9512C33.1183 21.8373 33.2377 21.8373 33.2377 21.6399V18.3217C33.2377 17.9336 33.1483 17.9214 32.9215 17.8562V17.7606C33.1597 17.683 33.4102 17.5765 33.5356 17.5042C33.6009 17.4685 33.649 17.4382 33.6665 17.4382C33.7028 17.4382 33.7142 17.4741 33.7142 17.5223V21.6399C33.7142 21.8373 33.8457 21.8373 34.0125 21.8373H34.1137V21.9927C33.912 21.9927 33.7028 21.9809 33.4875 21.9809C33.2737 21.9809 33.0592 21.987 32.8375 21.9927V21.8373Z" fill="#211D1D"/>
<path d="M36.6653 21.6643C36.6653 21.7723 36.7301 21.7777 36.8321 21.7777C36.903 21.7777 36.9932 21.7723 37.0708 21.7723V21.8978C36.8135 21.9213 36.3253 22.0463 36.2113 22.082L36.182 22.0642V21.582C35.825 21.8739 35.5498 22.082 35.1261 22.082C34.8047 22.082 34.4714 21.8739 34.4714 21.3735V19.8473C34.4714 19.6918 34.4472 19.5424 34.1144 19.5133V19.4C34.3293 19.3935 34.8047 19.3586 34.8826 19.3586C34.949 19.3586 34.949 19.4 34.949 19.5311V21.0684C34.949 21.247 34.949 21.7599 35.4672 21.7599C35.6691 21.7599 35.9376 21.6045 36.1877 21.3974V19.7926C36.1877 19.6739 35.9019 19.6087 35.6877 19.5486V19.4413C36.224 19.4053 36.5584 19.3586 36.6175 19.3586C36.6653 19.3586 36.6653 19.4 36.6653 19.4658V21.6643Z" fill="#211D1D"/>
<path d="M37.8508 21.3189C37.8508 21.5456 38.0653 21.9269 38.4652 21.9269C39.1034 21.9269 39.3715 21.3007 39.3715 20.77C39.3715 20.1268 38.8826 19.5905 38.4179 19.5905C38.1962 19.5905 38.0119 19.7337 37.8508 19.8714V21.3189ZM37.8508 19.6974C38.0893 19.4953 38.4117 19.269 38.7393 19.269C39.4307 19.269 39.848 19.8714 39.848 20.5202C39.848 21.3007 39.276 22.0819 38.4227 22.0819C37.9816 22.0819 37.7499 21.939 37.5945 21.8738L37.4161 22.0103L37.2913 21.945C37.3437 21.5937 37.374 21.2473 37.374 20.8842V18.3217C37.374 17.9336 37.2848 17.9212 37.0582 17.856V17.7605C37.2974 17.6832 37.5468 17.5766 37.6723 17.5038C37.7375 17.4687 37.7852 17.4383 37.8038 17.4383C37.8393 17.4383 37.8508 17.4743 37.8508 17.5224V19.6974Z" fill="#211D1D"/>
<path d="M12.1362 25.4579H12.1814C12.298 25.4579 12.4216 25.4426 12.4216 25.2733V23.5745C12.4216 23.4051 12.298 23.3898 12.1814 23.3898H12.1362V23.2911C12.2631 23.2911 12.4572 23.3047 12.6165 23.3047C12.7787 23.3047 12.973 23.2911 13.1251 23.2911V23.3898H13.0798C12.9633 23.3898 12.8397 23.4051 12.8397 23.5745V25.2733C12.8397 25.4426 12.9633 25.4579 13.0798 25.4579H13.1251V25.5559C12.9697 25.5559 12.7748 25.5431 12.613 25.5431C12.4537 25.5431 12.2631 25.5559 12.1362 25.5559V25.4579Z" fill="#211D1D"/>
<path d="M13.1113 25.5418L13.1117 25.4727H13.0803C12.9645 25.4727 12.8262 25.4524 12.8256 25.2732V23.5743C12.8262 23.3951 12.9645 23.3751 13.0803 23.3751H13.1113V23.3063C12.9617 23.3063 12.7738 23.3189 12.6167 23.3189C12.4627 23.3189 12.276 23.3067 12.1505 23.3063V23.3751H12.1815C12.297 23.3751 12.4353 23.3951 12.4353 23.5743V25.2732C12.4353 25.4524 12.297 25.4727 12.1815 25.4727H12.1505V25.5418C12.276 25.5401 12.4596 25.5286 12.6132 25.5286C12.7709 25.5286 12.9588 25.5408 13.1113 25.5418ZM13.1253 25.5697C12.9687 25.5697 12.7742 25.5569 12.6132 25.5569C12.4542 25.5569 12.2635 25.5697 12.1363 25.5697H12.1221V25.5558V25.4584V25.4446H12.1363H12.1815C12.2992 25.4417 12.4064 25.432 12.4072 25.2732V23.5743C12.4064 23.4157 12.2992 23.405 12.1815 23.4029H12.1221V23.3897V23.2782H12.1363C12.2635 23.2782 12.4578 23.2906 12.6167 23.2906C12.7781 23.2906 12.972 23.2782 13.1253 23.2782H13.1396V23.2925V23.4029H13.1253H13.0803C12.9623 23.405 12.8545 23.4157 12.8541 23.5743V25.2732C12.8545 25.432 12.9623 25.4417 13.0803 25.4446H13.1396V25.4584V25.5697H13.1253Z" fill="#211D1D"/>
<path d="M15.3535 24.9167L15.36 24.9103V23.694C15.36 23.4281 15.1751 23.3897 15.0773 23.3897H15.0065V23.2913C15.1586 23.2913 15.3083 23.3045 15.4605 23.3045C15.5931 23.3045 15.7267 23.2913 15.859 23.2913V23.3897H15.8112C15.6743 23.3897 15.5215 23.4151 15.5215 23.8009V25.2771C15.5215 25.3904 15.5254 25.5038 15.5414 25.6042H15.4181L13.7478 23.7429V25.0785C13.7478 25.3616 13.8027 25.4577 14.0525 25.4577H14.1074V25.5558C13.9683 25.5558 13.8287 25.543 13.689 25.543C13.5439 25.543 13.3942 25.5558 13.2485 25.5558V25.4577H13.2937C13.5176 25.4577 13.586 25.3063 13.586 25.0465V23.6808C13.586 23.4991 13.4359 23.3897 13.2905 23.3897H13.2485V23.2913C13.3711 23.2913 13.4979 23.3045 13.6209 23.3045C13.7185 23.3045 13.813 23.2913 13.9099 23.2913L15.3535 24.9167Z" fill="#211D1D"/>
<path d="M15.3458 24.9102V24.909L15.3429 24.9069L15.3458 24.9102ZM15.4178 25.5901H15.5254C15.5109 25.4928 15.5084 25.3844 15.5084 25.2772V23.8007C15.5084 23.4115 15.6711 23.3752 15.8109 23.3752H15.8451V23.306C15.7171 23.3068 15.5892 23.319 15.4605 23.319C15.3119 23.319 15.1672 23.3068 15.0204 23.306V23.3752H15.0771C15.1773 23.3752 15.3736 23.4194 15.3736 23.6942L15.3697 24.9201L15.3629 24.9262L15.3519 24.9365L13.91 23.306C13.8134 23.306 13.7193 23.319 13.621 23.319C13.5023 23.319 13.3799 23.3068 13.2624 23.306L13.262 23.3752H13.2905C13.4428 23.3752 13.5995 23.4914 13.5995 23.681V25.0466C13.5995 25.3064 13.5272 25.4718 13.2938 25.4728L13.2624 25.4718V25.5419C13.4028 25.5402 13.5471 25.5285 13.6891 25.5285C13.8248 25.5285 13.9595 25.5402 14.0931 25.5419V25.4728H14.0522C13.7969 25.4718 13.7335 25.3613 13.7335 25.0787V23.7063L15.4178 25.5901ZM15.5411 25.6185L15.4074 25.6136L13.7614 23.7794V25.0787C13.7657 25.3613 13.8084 25.4412 14.0522 25.4447H14.122V25.4579V25.5694H14.1074C13.9674 25.5694 13.8276 25.557 13.6891 25.557C13.5444 25.557 13.3954 25.5694 13.2478 25.5694H13.2335V25.5555V25.4447H13.2478H13.2938C13.5083 25.4429 13.5692 25.3054 13.5721 25.0466V23.681C13.5714 23.5085 13.4296 23.4034 13.2905 23.403H13.2335V23.3884V23.2779H13.2478C13.3722 23.2779 13.4987 23.2908 13.621 23.2908C13.7172 23.2908 13.8113 23.2779 13.9207 23.2829L15.3458 24.8869V23.6942C15.3441 23.4361 15.1723 23.4051 15.0771 23.403H14.9915V23.3884V23.2779H15.0062C15.159 23.2779 15.3088 23.2908 15.4605 23.2908C15.592 23.2908 15.7254 23.2779 15.859 23.2779H15.8736V23.291V23.403H15.859H15.8109C15.6765 23.407 15.5396 23.4191 15.5357 23.8007V25.2772C15.5357 25.3898 15.539 25.5031 15.5546 25.6022L15.5575 25.6185H15.5411Z" fill="#211D1D"/>
<path d="M16.3447 23.4537C16.1013 23.4537 16.0925 23.512 16.0433 23.7488H15.9463C15.9595 23.6582 15.9752 23.5673 15.9855 23.4729C15.998 23.3824 16.0047 23.2911 16.0047 23.1978H16.0828C16.1088 23.295 16.1897 23.2911 16.2774 23.2911H17.951C18.0382 23.2911 18.1195 23.2884 18.1263 23.191L18.2033 23.2046C18.1915 23.2911 18.1783 23.3792 18.1682 23.4668C18.1616 23.5541 18.1616 23.6422 18.1616 23.7295L18.0646 23.7659C18.0582 23.6454 18.0415 23.4537 17.8245 23.4537H17.2927V25.1792C17.2927 25.4298 17.4064 25.458 17.5617 25.458H17.623V25.5555C17.4969 25.5555 17.2695 25.5427 17.0945 25.5427C16.9003 25.5427 16.6726 25.5555 16.5461 25.5555V25.458H16.6077C16.7867 25.458 16.8768 25.4423 16.8768 25.1864V23.4537H16.3447Z" fill="#211D1D"/>
<path d="M17.6238 25.5696C17.4958 25.5696 17.2688 25.5566 17.0945 25.5566C16.9003 25.5566 16.674 25.5696 16.546 25.5696H16.5324V25.5556V25.4445H16.546H16.608C16.7869 25.4402 16.859 25.4381 16.8625 25.1864V23.4677H16.3447V23.4537V23.4402H16.891V25.1864C16.891 25.4462 16.7863 25.473 16.608 25.473H16.5603V25.5413C16.6886 25.5403 16.9063 25.5285 17.0945 25.5285C17.2638 25.5285 17.4805 25.5403 17.6088 25.5413V25.473H17.5617C17.4048 25.473 17.278 25.4348 17.278 25.1793V23.4402H17.8243C18.0421 23.4406 18.0706 23.6252 18.0774 23.7456L18.1483 23.7197C18.1483 23.6355 18.1486 23.5507 18.154 23.4648C18.1632 23.3821 18.1754 23.299 18.1876 23.216L18.1384 23.2078C18.1223 23.3019 18.0314 23.3073 17.9506 23.3062H16.2777H16.2605C16.1839 23.3062 16.1013 23.3023 16.0724 23.2121H16.0182C16.0182 23.3019 16.0118 23.3886 15.999 23.4755C15.9897 23.5642 15.9755 23.65 15.9633 23.7348H16.0326C16.0756 23.5096 16.103 23.4363 16.3447 23.4402V23.4537V23.4677C16.1051 23.4726 16.1105 23.5125 16.057 23.7523L16.0553 23.7635H16.0436H15.9298L15.932 23.7466C15.9445 23.6562 15.9616 23.5653 15.9716 23.4708C15.9844 23.381 15.9909 23.2909 15.9909 23.1979V23.1836H16.0047H16.0939L16.096 23.1939C16.1183 23.2759 16.1779 23.2763 16.2605 23.278H16.2777H17.9506C18.0404 23.2763 18.1066 23.2748 18.112 23.19L18.113 23.175L18.1277 23.1779L18.2189 23.1921L18.2175 23.2061C18.2047 23.2934 18.1919 23.381 18.1826 23.4677C18.1758 23.5546 18.1758 23.6423 18.1758 23.7296V23.7395L18.1665 23.7435L18.0514 23.7854L18.0511 23.766C18.0421 23.6444 18.0293 23.4677 17.8243 23.4677H17.3065V25.1793C17.3098 25.4241 17.4071 25.4412 17.5617 25.4445H17.637V25.458V25.5696H17.6238Z" fill="#211D1D"/>
<path d="M18.3074 25.4579H18.3526C18.4691 25.4579 18.5925 25.4426 18.5925 25.2733V23.5745C18.5925 23.4051 18.4691 23.3898 18.3526 23.3898H18.3074V23.2911C18.5044 23.2911 18.843 23.3047 19.1146 23.3047C19.3875 23.3047 19.7244 23.2911 19.9442 23.2911C19.9389 23.4312 19.942 23.6457 19.9517 23.7882L19.8536 23.8144C19.8384 23.6036 19.7992 23.4352 19.4585 23.4352H19.0087V24.284H19.3935C19.5885 24.284 19.6309 24.1746 19.6499 23.9992H19.7467C19.7407 24.1257 19.7372 24.2519 19.7372 24.3784C19.7372 24.5021 19.7407 24.6251 19.7467 24.7481L19.6499 24.7676C19.6309 24.573 19.621 24.4465 19.3968 24.4465H19.0087V25.202C19.0087 25.413 19.1961 25.413 19.4032 25.413C19.7931 25.413 19.9645 25.387 20.0618 25.0175L20.1523 25.0402C20.1103 25.2126 20.0714 25.3835 20.0423 25.5559C19.8351 25.5559 19.4616 25.5431 19.1699 25.5431C18.8776 25.5431 18.492 25.5559 18.3074 25.5559V25.4579Z" fill="#211D1D"/>
<path d="M20.0305 25.5413C20.0583 25.3778 20.0953 25.2138 20.1356 25.0506L20.0715 25.0345C19.9742 25.3978 19.7864 25.4298 19.4033 25.4269C19.1987 25.4269 18.9946 25.4269 18.9934 25.2021V24.4327H19.3968C19.6234 24.4298 19.6459 24.5671 19.662 24.7515L19.7322 24.737C19.7265 24.6177 19.7233 24.4971 19.7233 24.3785C19.7233 24.2569 19.7265 24.1354 19.7322 24.0125H19.662C19.6442 24.1821 19.5918 24.3004 19.3933 24.2983H18.9934V23.4202H19.4585C19.796 23.4184 19.8523 23.5927 19.8662 23.7959L19.9361 23.7769C19.9307 23.6853 19.9275 23.5688 19.9275 23.4605C19.9275 23.4037 19.9285 23.3521 19.93 23.3062C19.7097 23.3069 19.3812 23.319 19.1146 23.319C18.8484 23.319 18.5198 23.3069 18.3214 23.3062V23.3753H18.3526C18.4684 23.3753 18.6065 23.3952 18.6071 23.5742V25.2733C18.6065 25.4523 18.4684 25.4715 18.3526 25.4729H18.3214V25.5413C18.5099 25.5406 18.885 25.5285 19.1699 25.5285C19.456 25.5285 19.821 25.5406 20.0305 25.5413ZM20.0423 25.5695C19.8342 25.5695 19.4613 25.5563 19.1699 25.5563C18.8776 25.5563 18.4927 25.5695 18.3074 25.5695H18.2931V25.5556V25.4579V25.4447H18.3074H18.3526C18.4699 25.4426 18.5772 25.4319 18.5782 25.2733V23.5742C18.5772 23.4163 18.4699 23.4056 18.3526 23.4028H18.2931V23.3896V23.278H18.3074C18.5049 23.278 18.8431 23.2909 19.1146 23.2909C19.3869 23.2909 19.7237 23.278 19.9442 23.278H19.9589V23.2922C19.956 23.3411 19.9549 23.3985 19.9549 23.4605C19.9549 23.5721 19.9589 23.6946 19.9649 23.787V23.7987L19.9546 23.8019L19.8405 23.8318L19.8402 23.8147C19.821 23.6048 19.7931 23.4516 19.4585 23.4487H19.0216V24.2698H19.3933C19.5807 24.2684 19.6135 24.1725 19.6356 23.9975L19.637 23.985H19.6492H19.7619V23.9994C19.7551 24.1258 19.751 24.2519 19.751 24.3785C19.751 24.5011 19.7551 24.6243 19.7619 24.748V24.7591L19.7501 24.762L19.637 24.7841L19.6356 24.769C19.6135 24.5713 19.6125 24.4629 19.3968 24.4604L19.0216 24.4597V25.2021C19.0219 25.3991 19.1916 25.3981 19.4033 25.3991C19.7943 25.397 19.9502 25.3778 20.048 25.0136L20.0512 25.0004L20.0651 25.0033L20.1688 25.0299L20.1659 25.0435C20.1238 25.2145 20.0854 25.3867 20.0561 25.5578L20.054 25.5695H20.0423Z" fill="#211D1D"/>
<path d="M21.0058 24.3877H21.1639C21.4887 24.3877 21.6636 24.2651 21.6636 23.8821C21.6636 23.5941 21.4786 23.4084 21.19 23.4084C21.0921 23.4084 21.0506 23.4187 21.0058 23.4216V24.3877ZM20.5905 23.6354C20.5905 23.3984 20.4608 23.3895 20.3603 23.3895H20.3011V23.2911C20.4049 23.2911 20.6062 23.3043 20.8044 23.3043C20.9982 23.3043 21.1543 23.2911 21.3268 23.2911C21.7345 23.2911 22.0977 23.4017 22.0977 23.8629C22.0977 24.1542 21.9038 24.3325 21.6476 24.4341L22.2025 25.2633C22.293 25.4009 22.3571 25.439 22.5165 25.458V25.5555C22.4095 25.5555 22.3058 25.5427 22.1988 25.5427C22.0977 25.5427 21.9943 25.5555 21.8939 25.5555C21.6443 25.2284 21.4298 24.8778 21.2192 24.5043H21.0058V25.1985C21.0058 25.449 21.122 25.458 21.2709 25.458H21.3301V25.5555C21.1444 25.5555 20.9565 25.5427 20.7715 25.5427C20.6162 25.5427 20.4637 25.5555 20.3011 25.5555V25.458H20.3603C20.4794 25.458 20.5905 25.4034 20.5905 25.283V23.6354Z" fill="#211D1D"/>
<path d="M21.164 24.374C21.4848 24.3709 21.647 24.2596 21.6499 23.8825C21.6485 23.5996 21.472 23.424 21.1898 23.4221C21.1021 23.4221 21.061 23.43 21.0197 23.4347V24.374H21.164ZM21.0052 24.4015H20.9912V23.4083L21.0034 23.4072C21.048 23.4036 21.0914 23.3951 21.1898 23.3951C21.4848 23.3951 21.6772 23.5871 21.678 23.8825C21.6768 24.2696 21.4908 24.4015 21.164 24.4015H21.0052ZM21.0052 24.4906H21.2268L21.2307 24.4977C21.4417 24.8708 21.6551 25.2208 21.8939 25.5418C21.993 25.5418 22.0975 25.5286 22.198 25.5286C22.3016 25.5286 22.4018 25.5398 22.5027 25.5412V25.4699C22.3501 25.4518 22.2792 25.4061 22.1908 25.2718L21.626 24.4271L21.6423 24.4203C21.8962 24.3206 22.0839 24.1474 22.0843 23.8623C22.0839 23.4129 21.734 23.3078 21.3269 23.3063C21.1555 23.3063 20.9991 23.3189 20.8046 23.3189C20.6131 23.3189 20.4214 23.3067 20.3152 23.3063V23.3755H20.3601C20.4605 23.3755 20.6035 23.3918 20.6035 23.6356V25.2831C20.6035 25.4136 20.4823 25.4728 20.3601 25.4728H20.3152V25.5412C20.4716 25.5408 20.6188 25.5286 20.771 25.5286C20.9528 25.5286 21.1355 25.5408 21.3151 25.5412V25.4728H21.271C21.1231 25.4728 20.9912 25.4545 20.9912 25.1987V24.4906H21.0052ZM22.5165 25.5693C22.4078 25.5693 22.3049 25.5569 22.198 25.5569C22.0996 25.5569 21.9955 25.5693 21.8822 25.5647C21.6341 25.2379 21.421 24.8897 21.2111 24.5187H21.0197V25.1987C21.023 25.4429 21.1209 25.4407 21.271 25.4446H21.3436V25.4578V25.5693H21.3291C21.1434 25.5693 20.9549 25.5569 20.771 25.5569C20.6159 25.5569 20.4642 25.5693 20.3009 25.5693H20.2877V25.5558V25.4446H20.3009H20.3601C20.477 25.4435 20.5746 25.3926 20.5757 25.2831V23.6356C20.5736 23.4058 20.4605 23.4062 20.3601 23.4029H20.2877V23.3897V23.2782H20.3009C20.4068 23.2782 20.6067 23.2906 20.8046 23.2906C20.9976 23.2906 21.1537 23.2782 21.3269 23.2782C21.735 23.2782 22.1117 23.3918 22.1128 23.8623C22.1128 24.1552 21.9189 24.3381 21.6691 24.44L22.2137 25.2557C22.3041 25.3904 22.3605 25.4243 22.5183 25.4446L22.5301 25.4456V25.4578V25.5693H22.5165Z" fill="#211D1D"/>
<path d="M24.7182 24.9167L24.7243 24.9103V23.694C24.7243 23.4281 24.5397 23.3897 24.4427 23.3897H24.3711V23.2913C24.524 23.2913 24.6722 23.3045 24.8254 23.3045C24.9588 23.3045 25.0913 23.2913 25.2246 23.2913V23.3897H25.1765C25.04 23.3897 24.8871 23.4151 24.8871 23.8009V25.2771C24.8871 25.3904 24.89 25.5038 24.9059 25.6042H24.7835L23.113 23.7429V25.0785C23.113 25.3616 23.1683 25.4577 23.4181 25.4577H23.4737V25.5558C23.3337 25.5558 23.194 25.543 23.0546 25.543C22.9086 25.543 22.7596 25.5558 22.6138 25.5558V25.4577H22.6584C22.8829 25.4577 22.9506 25.3063 22.9506 25.0465V23.6808C22.9506 23.4991 22.8013 23.3897 22.6559 23.3897H22.6138V23.2913C22.7364 23.2913 22.864 23.3045 22.9866 23.3045C23.0835 23.3045 23.1776 23.2913 23.2749 23.2913L24.7182 24.9167Z" fill="#211D1D"/>
<path d="M24.7103 24.9102V24.909L24.7086 24.9069L24.7103 24.9102ZM24.7835 25.5901H24.8893C24.8758 25.4932 24.8729 25.3844 24.8729 25.2772V23.8007C24.8729 23.4115 25.0371 23.376 25.1762 23.3752H25.21V23.306C25.0825 23.3068 24.9541 23.319 24.8255 23.319C24.6769 23.319 24.5315 23.3068 24.3854 23.306V23.3752H24.4428C24.5425 23.376 24.7392 23.4194 24.7392 23.6942L24.7346 24.9201L24.7286 24.9262L24.7182 24.9372L23.2749 23.306C23.1787 23.306 23.0838 23.319 22.9866 23.319C22.8662 23.319 22.745 23.3068 22.6274 23.306V23.3752H22.6556C22.808 23.376 22.9645 23.4906 22.9645 23.681V25.0463C22.9645 25.3064 22.8908 25.4718 22.6581 25.4728H22.6274V25.5413C22.7678 25.5402 22.9121 25.5285 23.0547 25.5285C23.1901 25.5285 23.3247 25.5402 23.4591 25.5413V25.4728H23.4182C23.1626 25.4728 23.0989 25.3617 23.0982 25.0787V23.7063L24.7835 25.5901ZM24.906 25.6185L24.7728 25.6136L23.127 23.7794V25.0787C23.1309 25.3617 23.1736 25.4412 23.4182 25.4447H23.4869V25.4579V25.5694H23.4731C23.3326 25.5694 23.1933 25.5562 23.0547 25.5562C22.9096 25.5562 22.7593 25.5694 22.6138 25.5694H22.5985V25.5555V25.4447H22.6138H22.6581C22.8722 25.4436 22.9343 25.3054 22.9364 25.0463V23.681C22.9356 23.5079 22.7948 23.4034 22.6556 23.403H22.5985V23.3898V23.2779H22.6138C22.7372 23.2779 22.8644 23.2908 22.9866 23.2908C23.0821 23.2908 23.1758 23.2779 23.2845 23.2819L24.7103 24.8869V23.6942C24.7101 23.4361 24.5369 23.4045 24.4428 23.403H24.3569V23.3898V23.2779H24.3711C24.5247 23.2779 24.674 23.2908 24.8255 23.2908C24.9574 23.2908 25.0906 23.2779 25.2243 23.2779H25.2382V23.2926V23.403H25.2243H25.1762C25.0425 23.4062 24.9046 23.4191 24.901 23.8007V25.2772C24.901 25.3898 24.9039 25.5021 24.9203 25.6022L24.9217 25.6185H24.906Z" fill="#211D1D"/>
<path d="M26.22 23.6549H26.2134L25.9117 24.5729H26.5179L26.22 23.6549ZM25.747 25.0918C25.7138 25.2019 25.6744 25.2871 25.6744 25.3444C25.6744 25.4421 25.8115 25.4578 25.9181 25.4578H25.9541V25.5554C25.8236 25.549 25.6911 25.543 25.561 25.543C25.4442 25.543 25.3279 25.549 25.2114 25.5554V25.4578H25.2303C25.3568 25.4578 25.4644 25.3833 25.5119 25.2472L26.0315 23.7594C26.0734 23.6389 26.1326 23.477 26.1515 23.3562C26.2552 23.3209 26.3853 23.2565 26.4469 23.2173L26.4726 23.2113L26.4954 23.2204L26.525 23.3017L27.1212 24.998C27.1601 25.1114 27.1993 25.2319 27.241 25.3291C27.2802 25.4196 27.3486 25.4578 27.4555 25.4578H27.4743V25.5554C27.329 25.549 27.1828 25.543 27.0275 25.543C26.869 25.543 26.7064 25.549 26.5414 25.5554V25.4578H26.5771C26.6512 25.4578 26.7776 25.4456 26.7776 25.3644C26.7776 25.3221 26.7488 25.2344 26.7121 25.1306L26.586 24.7542H25.8497L25.747 25.0918Z" fill="#211D1D"/>
<path d="M25.9305 24.5592H26.4982L26.216 23.6896L25.9305 24.5592ZM25.8916 24.5874L26.2024 23.6411H26.2135H26.2199H26.2294L26.5374 24.5874H25.8916ZM26.5548 25.5403C26.7149 25.5353 26.8727 25.5285 27.0274 25.5285C27.1786 25.5285 27.3192 25.5353 27.4604 25.5403V25.473H27.4554C27.345 25.474 27.2686 25.4294 27.2281 25.3347C27.186 25.2363 27.1464 25.1159 27.1082 25.0025L26.5114 23.3061L26.4835 23.2278L26.4786 23.2245H26.4726L26.454 23.2289C26.3913 23.2691 26.2608 23.3333 26.1646 23.3585C26.145 23.4819 26.0866 23.6433 26.0442 23.7635L25.5257 25.2523C25.4761 25.3931 25.3624 25.473 25.2302 25.473H25.2253V25.5403C25.336 25.5353 25.4486 25.5285 25.5612 25.5285C25.6867 25.5285 25.8147 25.5353 25.9386 25.5403V25.473H25.9181C25.8122 25.4715 25.6646 25.46 25.6611 25.345C25.6611 25.2804 25.7003 25.1972 25.7327 25.088L25.747 25.0919L25.7327 25.0876L25.8396 24.741H26.5952L26.7251 25.1262C26.762 25.2306 26.7915 25.3168 26.7915 25.3646C26.7865 25.464 26.6499 25.4711 26.577 25.473H26.5548V25.5403ZM27.4736 25.5696C27.3285 25.5634 27.1829 25.5564 27.0274 25.5564C26.8688 25.5564 26.7073 25.5634 26.5413 25.5696L26.5267 25.5706V25.5556V25.4433H26.5413H26.577C26.6514 25.4433 26.7626 25.427 26.7626 25.3646C26.7633 25.3275 26.7352 25.2385 26.6992 25.1355L26.5758 24.7687H25.8603L25.759 25.0959C25.7259 25.2071 25.6879 25.2926 25.6879 25.345C25.6888 25.4241 25.8103 25.4433 25.9181 25.4433H25.9676V25.4583V25.5706L25.953 25.5696C25.8233 25.5634 25.6902 25.5564 25.5612 25.5564C25.4447 25.5564 25.3279 25.5634 25.2117 25.5696L25.1974 25.5706V25.5556V25.4433H25.2113H25.2302C25.351 25.4433 25.4515 25.3742 25.4982 25.2427L26.0178 23.7545C26.0605 23.6341 26.1186 23.4726 26.1468 23.3436C26.2484 23.3083 26.3784 23.2431 26.4416 23.2039L26.4726 23.196L26.5078 23.2156L26.5374 23.2968L27.135 24.9936C27.1732 25.1068 27.212 25.2267 27.2541 25.3221C27.2915 25.4092 27.3514 25.4433 27.4554 25.4433H27.4889V25.4583V25.5706L27.4736 25.5696Z" fill="#211D1D"/>
<path d="M27.6178 23.4537C27.374 23.4537 27.3647 23.512 27.316 23.7488H27.2183C27.2314 23.6582 27.2478 23.5673 27.2575 23.4729C27.2706 23.3824 27.277 23.2911 27.277 23.1978H27.3548C27.3808 23.295 27.462 23.2911 27.5493 23.2911H29.223C29.3102 23.2911 29.3908 23.2884 29.3975 23.191L29.4755 23.2046C29.4631 23.2911 29.4507 23.3792 29.44 23.4668C29.4321 23.5541 29.4321 23.6422 29.4321 23.7295L29.3359 23.7659C29.3306 23.6454 29.3134 23.4537 29.0963 23.4537H28.5643V25.1792C28.5643 25.4298 28.678 25.458 28.8337 25.458H28.895V25.5555C28.7689 25.5555 28.5418 25.5427 28.3665 25.5427C28.1723 25.5427 27.9446 25.5555 27.8178 25.5555V25.458H27.8797C28.059 25.458 28.1498 25.4423 28.1498 25.1864V23.4537H27.6178Z" fill="#211D1D"/>
<path d="M28.8947 25.5696C28.7682 25.5696 28.5413 25.5566 28.3666 25.5566C28.1728 25.5566 27.9461 25.5696 27.8178 25.5696H27.8043V25.5556V25.4445H27.8178H27.8797C28.0587 25.4402 28.13 25.4381 28.1346 25.1864V23.4677H27.6175V23.4537V23.4402H28.1627V25.1864C28.1627 25.4462 28.0584 25.4715 27.8797 25.473H27.832V25.5417C27.9604 25.5403 28.1781 25.5285 28.3666 25.5285C28.5359 25.5285 28.7529 25.5403 28.8813 25.5417L28.8805 25.473H28.8332C28.677 25.4715 28.5508 25.4348 28.5506 25.1793V23.4402H29.0962C29.3146 23.4406 29.3424 23.6252 29.3488 23.7456L29.4193 23.7197C29.4193 23.6355 29.4193 23.5507 29.4261 23.4654C29.4351 23.3821 29.4479 23.299 29.4593 23.2167L29.4108 23.2078C29.3951 23.3019 29.3042 23.3073 29.2227 23.3062H27.549H27.5327C27.4561 23.3065 27.3737 23.3023 27.3442 23.211H27.2911C27.2901 23.3019 27.2843 23.3886 27.2711 23.4755C27.2622 23.5649 27.2465 23.65 27.2344 23.7348H27.3043C27.347 23.5096 27.3745 23.4355 27.6175 23.4402V23.4537V23.4677C27.3766 23.4719 27.3823 23.5125 27.3295 23.7523L27.3271 23.7635H27.3161H27.2017L27.2038 23.7466C27.217 23.6562 27.2333 23.5653 27.243 23.4719C27.2562 23.381 27.2622 23.2909 27.2622 23.1979V23.1836H27.2771H27.3648L27.3677 23.1939C27.3906 23.2759 27.4503 23.2763 27.5327 23.278H27.549H29.2227C29.3125 23.2763 29.3784 23.2748 29.3837 23.19L29.3841 23.175L29.3998 23.1779L29.4921 23.1921L29.4892 23.2061C29.4753 23.2934 29.4635 23.381 29.4539 23.4677C29.4479 23.5546 29.4479 23.6423 29.4479 23.7296V23.7395L29.4379 23.7435L29.3227 23.7854V23.766C29.3146 23.6444 29.3014 23.4677 29.0962 23.4677H28.5783V25.1793C28.5815 25.4241 28.6788 25.4412 28.8332 25.4445H28.909V25.458V25.5696H28.8947Z" fill="#211D1D"/>
<path d="M29.5951 25.4579H29.6403C29.758 25.4579 29.8806 25.4426 29.8806 25.2733V23.5745C29.8806 23.4051 29.758 23.3898 29.6403 23.3898H29.5951V23.2911C29.7216 23.2911 29.9159 23.3047 30.0748 23.3047C30.2369 23.3047 30.4315 23.2911 30.5847 23.2911V23.3898H30.5395C30.4219 23.3898 30.2982 23.4051 30.2982 23.5745V25.2733C30.2982 25.4426 30.4219 25.4579 30.5395 25.4579H30.5847V25.5559C30.4287 25.5559 30.234 25.5431 30.0719 25.5431C29.9126 25.5431 29.7216 25.5559 29.5951 25.5559V25.4579Z" fill="#211D1D"/>
<path d="M30.5697 25.5413V25.4729H30.5394C30.4228 25.4729 30.2849 25.4523 30.2849 25.2733V23.5742C30.2849 23.3952 30.4228 23.3753 30.5394 23.3753H30.5697V23.3062C30.4199 23.3069 30.2329 23.319 30.0747 23.319C29.9207 23.319 29.7347 23.3069 29.6092 23.3062V23.3753H29.6402C29.7552 23.3753 29.8943 23.3952 29.8943 23.5742V25.2733C29.8943 25.4523 29.7552 25.4729 29.6402 25.4729H29.6092V25.5413C29.7347 25.5396 29.9175 25.5285 30.0718 25.5285C30.2293 25.5285 30.4171 25.5403 30.5697 25.5413ZM30.5846 25.5695C30.4278 25.5695 30.2335 25.5563 30.0718 25.5563C29.9131 25.5563 29.7215 25.5695 29.595 25.5695H29.5814V25.5556V25.4579V25.4447H29.595H29.6402C29.7578 25.4426 29.865 25.4319 29.8654 25.2733V23.5742C29.865 23.4163 29.7578 23.4053 29.6402 23.4028H29.5814V23.3896V23.278H29.595C29.7215 23.278 29.9164 23.2909 30.0747 23.2909C30.2368 23.2909 30.431 23.278 30.5846 23.278H30.5978V23.2912V23.4028H30.5846H30.5394C30.4207 23.4053 30.3138 23.4163 30.3126 23.5742V25.2733C30.3138 25.4319 30.4207 25.4426 30.5394 25.4447H30.5978V25.4579V25.5695H30.5846Z" fill="#211D1D"/>
<path d="M31.9267 25.4617C32.5567 25.4617 32.6653 24.9068 32.6653 24.4343C32.6653 23.9599 32.4102 23.3862 31.8718 23.3862C31.3043 23.3862 31.1358 23.892 31.1358 24.326C31.1358 24.9068 31.4017 25.4617 31.9267 25.4617ZM31.8782 23.2432C32.5691 23.2432 33.1205 23.6717 33.1205 24.3627C33.1205 25.1085 32.5856 25.6042 31.8945 25.6042C31.206 25.6042 30.6821 25.1378 30.6821 24.4396C30.6821 23.7661 31.2038 23.2432 31.8782 23.2432Z" fill="#211D1D"/>
<path d="M31.121 24.3259C31.122 23.8897 31.2931 23.3716 31.8715 23.3716C32.4228 23.3726 32.6795 23.9574 32.6798 24.4343C32.6795 24.9068 32.5679 25.4752 31.9264 25.4752V25.4617V25.4477C32.5441 25.4475 32.6506 24.9068 32.6519 24.4343C32.6519 23.9638 32.3986 23.4007 31.8715 23.4C31.3152 23.4007 31.1505 23.8943 31.1495 24.3259C31.1502 24.9043 31.4136 25.4463 31.9264 25.4477V25.4617V25.4752C31.3887 25.4745 31.122 24.91 31.121 24.3259ZM30.667 24.4399C30.6688 23.7578 31.1965 23.23 31.8779 23.2286V23.2432V23.2575C31.2104 23.2575 30.6944 23.7729 30.6944 24.4399C30.6955 25.1295 31.2133 25.5896 31.8943 25.5899C32.5782 25.5896 33.1054 25.1007 33.1071 24.3619C33.1067 23.6798 32.5636 23.2582 31.8779 23.2575V23.2432V23.2286C32.5743 23.23 33.1327 23.6627 33.1339 24.3619C33.1335 25.1156 32.5922 25.617 31.8943 25.6184C31.2008 25.617 30.6688 25.1445 30.667 24.4399Z" fill="#211D1D"/>
<path d="M35.3063 24.9167L35.3127 24.9103V23.694C35.3127 23.4281 35.1279 23.3897 35.0295 23.3897H34.9597V23.2913C35.111 23.2913 35.2611 23.3045 35.413 23.3045C35.5468 23.3045 35.6795 23.2913 35.8121 23.2913V23.3897H35.7637C35.6267 23.3897 35.4743 23.4151 35.4743 23.8009V25.2771C35.4743 25.3904 35.4782 25.5038 35.4942 25.6042H35.3705L33.7006 23.7429V25.0785C33.7006 25.3616 33.7555 25.4577 34.0056 25.4577H34.0605V25.5558C33.9211 25.5558 33.7822 25.543 33.642 25.543C33.4963 25.543 33.3466 25.5558 33.2006 25.5558V25.4577H33.2465C33.4711 25.4577 33.5377 25.3063 33.5377 25.0465V23.6808C33.5377 23.4991 33.3895 23.3897 33.2426 23.3897H33.2006V23.2913C33.3243 23.2913 33.4504 23.3045 33.5741 23.3045C33.6709 23.3045 33.765 23.2913 33.8623 23.2913L35.3063 24.9167Z" fill="#211D1D"/>
<path d="M35.2981 24.9102V24.909L35.2952 24.9069L35.2981 24.9102ZM35.3704 25.5901H35.4777C35.4635 25.4928 35.4606 25.3844 35.4606 25.2772V23.8007C35.4606 23.4113 35.6245 23.376 35.7635 23.3752H35.7985V23.306C35.6698 23.3068 35.5418 23.319 35.4121 23.319C35.2653 23.319 35.1202 23.3068 34.9731 23.306V23.3752H35.0294C35.1306 23.376 35.3262 23.42 35.3262 23.6942L35.3223 24.9201L35.3166 24.9262L35.3062 24.9372L33.8622 23.306C33.7668 23.306 33.6719 23.319 33.574 23.319C33.4542 23.319 33.3319 23.3068 33.2147 23.306V23.3752H33.2425C33.3954 23.376 33.5522 23.4906 33.5522 23.681V25.0466C33.5522 25.3064 33.4799 25.4718 33.2464 25.4728H33.2147V25.5413C33.3554 25.5402 33.4995 25.5285 33.6424 25.5285C33.7778 25.5285 33.9124 25.5402 34.0465 25.5413V25.4728H34.0044C33.7499 25.4728 33.6865 25.3617 33.6865 25.0787V23.7063L35.3704 25.5901ZM35.4941 25.6185L35.3597 25.6136L33.714 23.7794V25.0787C33.7179 25.3617 33.761 25.4408 34.0044 25.4436H34.075V25.4583V25.5694H34.0608C33.9204 25.5694 33.781 25.557 33.6424 25.557C33.497 25.557 33.348 25.5694 33.2004 25.5694H33.1873V25.5555V25.4436H33.2004H33.2464C33.4603 25.4429 33.522 25.3054 33.5237 25.0466V23.681C33.5237 23.5079 33.3826 23.4034 33.2425 23.403H33.1873V23.3898V23.2779H33.2004C33.3248 23.2779 33.4514 23.2908 33.574 23.2908C33.6698 23.2908 33.7631 23.2779 33.8736 23.2829L35.2981 24.8869V23.6942C35.2974 23.4361 35.1252 23.4051 35.0294 23.403H34.9449V23.3898V23.2779H34.9592C35.1117 23.2779 35.2621 23.2908 35.4121 23.2908C35.5457 23.2908 35.6772 23.2779 35.812 23.2779H35.8258V23.291V23.403H35.812H35.7635C35.6303 23.407 35.492 23.4191 35.4891 23.8007V25.2772C35.4891 25.3898 35.492 25.5031 35.5069 25.6022L35.5097 25.6185H35.4941Z" fill="#211D1D"/>
<path d="M36.807 23.6549H36.8005L36.4987 24.5729H37.1063L36.807 23.6549ZM36.3334 25.0918C36.3016 25.2019 36.2624 25.2871 36.2624 25.3444C36.2624 25.4421 36.3996 25.4578 36.5051 25.4578H36.5415V25.5554C36.4114 25.549 36.2787 25.543 36.1487 25.543C36.0308 25.543 35.915 25.549 35.7991 25.5554V25.4578H35.8169C35.9441 25.4578 36.0518 25.3833 36.0999 25.2472L36.6195 23.7594C36.6616 23.6389 36.7196 23.477 36.7389 23.3562C36.8425 23.3209 36.9723 23.2565 37.0339 23.2173L37.0603 23.2113L37.0828 23.2204L37.1127 23.3017L37.7089 24.998C37.7471 25.1114 37.7869 25.2319 37.829 25.3291C37.8676 25.4196 37.9363 25.4578 38.0431 25.4578H38.0625V25.5554C37.9167 25.549 37.7702 25.543 37.6149 25.543C37.4559 25.543 37.2935 25.549 37.128 25.5554V25.4578H37.1641C37.2382 25.4578 37.3654 25.4456 37.3654 25.3644C37.3654 25.3221 37.3358 25.2344 37.2999 25.1306L37.174 24.7542H36.4385L36.3334 25.0918Z" fill="#211D1D"/>
<path d="M36.5186 24.5585H37.0863L36.8034 23.6903L36.5186 24.5585ZM36.4791 24.5863L36.7916 23.6411H36.8005H36.807H36.8177L37.1242 24.5863H36.4791ZM37.1424 25.5407C37.3023 25.5353 37.4605 25.5285 37.6153 25.5285C37.7656 25.5285 37.9068 25.5353 38.0478 25.5403V25.473H38.0429C37.9331 25.473 37.8562 25.4294 37.8158 25.3347C37.7724 25.2363 37.7339 25.1159 37.6954 25.0025L37.0992 23.3061L37.071 23.2289L37.066 23.2245H37.0604L37.0415 23.2289C36.9787 23.2683 36.8493 23.3337 36.7521 23.3585C36.7328 23.4819 36.6736 23.6433 36.6323 23.7635L36.1127 25.2523C36.0632 25.3931 35.951 25.473 35.8173 25.473H35.8119V25.5403C35.9242 25.5353 36.0361 25.5285 36.1491 25.5285C36.2745 25.5285 36.4021 25.5353 36.5279 25.5403V25.473H36.5051C36.4 25.4715 36.2521 25.46 36.2481 25.3446C36.2489 25.2804 36.2892 25.1974 36.3208 25.088L36.3334 25.0919L36.3208 25.0876L36.4271 24.741H37.184L37.3134 25.1262C37.3497 25.2306 37.3786 25.3168 37.3786 25.3646C37.374 25.464 37.2378 25.4711 37.1634 25.473H37.1424V25.5407ZM38.0617 25.5696C37.9157 25.5638 37.7693 25.5566 37.6153 25.5566C37.4566 25.5566 37.2941 25.5638 37.1288 25.5696L37.1145 25.5706V25.5556V25.4448H37.128H37.1634C37.2389 25.4448 37.3509 25.427 37.3515 25.3646C37.3519 25.3275 37.323 25.2387 37.2859 25.1355L37.163 24.7687H36.4471L36.3472 25.0959C36.3148 25.2075 36.2756 25.2926 36.2766 25.3446C36.2766 25.4241 36.3982 25.4448 36.5051 25.4448H36.5551V25.458V25.5706L36.5404 25.5696C36.411 25.5638 36.2778 25.5566 36.1491 25.5566C36.0322 25.5566 35.916 25.5638 35.7991 25.5696L35.7849 25.5706V25.5556V25.4448H35.7991H35.8173C35.9381 25.4433 36.0398 25.3739 36.0867 25.2427L36.6059 23.7545C36.6473 23.6341 36.7058 23.4726 36.7339 23.3436C36.8362 23.3083 36.9667 23.2431 37.029 23.2039L37.0604 23.1968L37.096 23.2159L37.1252 23.2968L37.7221 24.9936C37.7606 25.1068 37.7999 25.2267 37.8422 25.3229C37.8804 25.4092 37.9384 25.4433 38.0429 25.4448H38.0761V25.458V25.5706L38.0617 25.5696Z" fill="#211D1D"/>
<path d="M38.8801 25.2379C38.8801 25.3676 38.9703 25.4065 39.0741 25.4196C39.2069 25.4297 39.3529 25.4297 39.5027 25.4132C39.6381 25.3975 39.7557 25.3192 39.8136 25.2379C39.8651 25.1663 39.8937 25.0761 39.9143 25.0042H40.0085C39.9721 25.189 39.9268 25.3712 39.8876 25.5558C39.6027 25.5558 39.3168 25.543 39.0323 25.543C38.7465 25.543 38.4608 25.5558 38.1757 25.5558V25.4578H38.2201C38.3381 25.4578 38.4643 25.4425 38.4643 25.2408V23.5743C38.4643 23.405 38.3381 23.3897 38.2201 23.3897H38.1757V23.2914C38.3474 23.2914 38.5163 23.3045 38.6877 23.3045C38.8534 23.3045 39.0156 23.2914 39.1812 23.2914V23.3897H39.0998C38.9767 23.3897 38.8801 23.393 38.8801 23.565V25.2379Z" fill="#211D1D"/>
<path d="M39.8766 25.5413C39.9142 25.3656 39.957 25.1932 39.9908 25.0178H39.9242C39.9046 25.0894 39.8757 25.1761 39.8242 25.2463C39.7641 25.3307 39.6435 25.4098 39.503 25.4269C39.4178 25.4362 39.3336 25.4401 39.2545 25.4401C39.1918 25.4401 39.13 25.4373 39.0715 25.4333C38.9669 25.4216 38.8642 25.3767 38.8653 25.238V23.5649C38.8653 23.3842 38.979 23.3753 39.0998 23.3753H39.1667V23.3062C39.0072 23.3069 38.8489 23.319 38.6879 23.319C38.5193 23.319 38.355 23.3069 38.1892 23.3062V23.3753H38.2203C38.3364 23.3753 38.478 23.3952 38.478 23.5738V25.2405C38.478 25.4505 38.3368 25.4729 38.2203 25.4729H38.1892V25.5413C38.4691 25.5406 38.7501 25.5285 39.0326 25.5285C39.3139 25.5285 39.5953 25.5406 39.8766 25.5413ZM39.8879 25.5695C39.602 25.5695 39.3168 25.5566 39.0326 25.5566C38.7466 25.5566 38.4608 25.5695 38.175 25.5695H38.1619V25.5556V25.4447H38.175H38.2203C38.3378 25.442 38.4497 25.4333 38.4509 25.2405V23.5738C38.4497 23.4163 38.3389 23.4053 38.2203 23.4028H38.1619V23.3896V23.278H38.175C38.3479 23.278 38.5164 23.2909 38.6879 23.2909C38.8529 23.2909 39.0149 23.278 39.1815 23.278H39.1943V23.2912V23.4028H39.1815H39.0998C38.974 23.4063 38.8956 23.4006 38.8927 23.5649V25.238C38.8942 25.359 38.973 25.391 39.0754 25.4059C39.1316 25.4098 39.1924 25.412 39.2545 25.412C39.3336 25.412 39.4159 25.4081 39.5008 25.3991C39.6326 25.3834 39.7458 25.3076 39.8024 25.2302C39.8522 25.1604 39.8805 25.0716 39.8995 25.0007L39.903 24.9897H39.9142H40.0252L40.022 25.0075C39.9856 25.1924 39.9413 25.3739 39.902 25.5592L39.8985 25.5695H39.8879Z" fill="#211D1D"/>
<path d="M39.9143 23.5422H39.9542C39.9985 23.5422 40.0188 23.509 40.0188 23.4553C40.0188 23.4008 39.9863 23.3818 39.9519 23.3818H39.9143V23.5422ZM39.7988 23.7225V23.7055C39.8403 23.6997 39.8484 23.7014 39.8484 23.6747V23.4225C39.8484 23.3864 39.8445 23.3744 39.7998 23.3765V23.3587H39.9754C40.0345 23.3587 40.0902 23.3878 40.0902 23.4495C40.0902 23.5009 40.057 23.5375 40.0095 23.5525L40.0651 23.6313C40.0918 23.6659 40.1213 23.6997 40.141 23.7115V23.7225H40.0744C40.0426 23.7225 40.0149 23.6549 39.9519 23.5654H39.9143V23.6783C39.9143 23.7014 39.9223 23.6997 39.9635 23.7055V23.7225H39.7988ZM39.9686 23.8191C40.1213 23.8191 40.2387 23.6894 40.2387 23.5422C40.2387 23.395 40.1236 23.2635 39.9686 23.2635C39.8146 23.2635 39.6976 23.395 39.6976 23.5422C39.6976 23.6894 39.8146 23.8191 39.9686 23.8191ZM39.9686 23.2001C40.1638 23.2001 40.3098 23.3504 40.3098 23.5422C40.3098 23.734 40.1638 23.8826 39.9686 23.8826C39.7734 23.8826 39.6268 23.734 39.6268 23.5422C39.6268 23.3504 39.7734 23.2001 39.9686 23.2001Z" fill="#211D1D"/>
<path d="M19.7213 11.7563C19.7213 8.7225 22.1805 6.26313 25.2145 6.26313C28.2484 6.26313 30.7077 8.7225 30.7077 11.7563C30.7077 14.7903 28.2484 17.2496 25.2145 17.2496C22.1805 17.2496 19.7213 14.7903 19.7213 11.7563Z" fill="white"/>
<path d="M28.5369 11.6482C28.5344 10.2412 27.6552 9.04185 26.4162 8.56659V14.7297C27.6552 14.2537 28.5344 13.0555 28.5369 11.6482ZM24.0524 14.7282V8.56698C22.8147 9.04401 21.9366 10.242 21.9335 11.6482C21.9366 13.054 22.8147 14.2523 24.0524 14.7282ZM25.235 6.43908C22.3581 6.44008 20.0273 8.77131 20.027 11.6482C20.0273 14.5246 22.3581 16.8555 25.235 16.8559C28.1118 16.8555 30.4434 14.5246 30.444 11.6482C30.4434 8.77131 28.1118 6.44008 25.235 6.43908ZM25.2221 17.3478C22.074 17.3625 19.483 14.8124 19.483 11.7076C19.483 8.31477 22.074 5.96784 25.2221 5.96845H26.6978C29.8082 5.96784 32.6475 8.31326 32.6475 11.7076C32.6475 14.8108 29.8082 17.3478 26.6978 17.3478H25.2221Z" fill="#254D98"/>
<path d="M43.4688 27.7589V27.5177H8.51471C8.18099 27.5176 7.88106 27.3832 7.66214 27.1645C7.4436 26.9456 7.30908 26.6457 7.30896 26.312V5.68804C7.30908 5.35433 7.4436 5.0544 7.66214 4.83547C7.88106 4.61692 8.18099 4.48243 8.51471 4.4823H43.4688C43.8026 4.48243 44.1026 4.61692 44.3215 4.83547C44.5398 5.0544 44.6746 5.35433 44.6746 5.68804V26.312C44.6746 26.6457 44.5398 26.9456 44.3215 27.1645C44.1026 27.3832 43.8026 27.5176 43.4688 27.5177V27.7589V28C44.4013 27.9999 45.1569 27.2444 45.1569 26.312V5.68804C45.1569 4.75573 44.4013 4.00013 43.4688 4H8.51471C7.58239 4.00013 6.82679 4.75573 6.82666 5.68804V26.312C6.82679 27.2444 7.58239 27.9999 8.51471 28H43.4688V27.7589Z" fill="#26489A"/>
</svg>
